<svg width="184" height="44" viewBox="0 0 184 44" fill="none" xmlns="http://www.w3.org/2000/svg">
<path d="M0 43.5848L20.6655 42.3191V37.8269L5.14958 38.7761V31.8244L19.2462 30.9614V26.9677L5.14958 27.8307V20.8742L20.6655 19.9249V15.4326L0 16.6983V43.5848Z" fill="white"/>
<path d="M24.0552 15.2264V42.1129L26.5485 41.9595L28.9698 41.8108V14.9243L26.5485 15.0729L24.0552 15.2264Z" fill="white"/>
<path d="M47.3532 21.9051C45.8812 20.9941 44.0448 20.6106 41.8392 20.7448C39.9453 20.8599 38.2719 21.3969 36.8239 22.3557C35.3759 23.3146 34.2635 24.5995 33.4819 26.2104C32.7004 27.8212 32.312 29.6479 32.312 31.695C32.312 33.7422 32.7004 35.5257 33.4819 37.0407C34.2635 38.5557 35.3759 39.7016 36.8239 40.483C38.2719 41.2645 39.9405 41.6001 41.8392 41.4803C44.1167 41.3412 46.0634 40.6029 47.6792 39.2605C49.2951 37.9181 50.3931 36.1681 50.9828 34.0059L45.9148 34.3175C45.5552 35.3387 45.0229 36.1586 44.3181 36.777C43.6133 37.3955 42.7886 37.7359 41.8392 37.7934C40.9426 37.8462 40.1371 37.6208 39.4179 37.1174C38.6986 36.6092 38.1568 35.8661 37.7828 34.8737C37.5239 34.1833 37.3609 33.4018 37.2842 32.5436L51.3664 31.6807C51.5199 29.5184 51.2561 27.5767 50.5801 25.8508C49.8992 24.1248 48.8252 22.8064 47.3532 21.9003V21.9051ZM39.4227 25.4049C40.1371 24.8104 40.9474 24.4844 41.844 24.4317C42.7646 24.3741 43.5653 24.5755 44.2462 25.0357C44.9223 25.496 45.4497 26.172 45.8189 27.0733C46.0203 27.5624 46.1689 28.1041 46.2792 28.6986L37.4328 29.2404C37.5239 28.7561 37.639 28.2863 37.7924 27.8548C38.1616 26.8192 38.7082 26.009 39.4275 25.4097L39.4227 25.4049Z" fill="white"/>
<path d="M62.2169 34.6005L57.3167 20.2559L52.0137 20.5819L59.6949 39.9317L64.8061 39.6201L72.449 19.3306L67.1891 19.6518L62.2169 34.6005Z" fill="white"/>
<path d="M88.3053 19.3977C86.8334 18.4868 84.997 18.1033 82.7914 18.2375C80.8974 18.3526 79.2241 18.8895 77.776 19.8484C76.328 20.8073 75.2156 22.0921 74.4341 23.703C73.6525 25.3139 73.2642 27.1406 73.2642 29.1925C73.2642 31.2445 73.6525 33.0232 74.4341 34.5382C75.2156 36.0532 76.328 37.199 77.776 37.9805C79.2241 38.762 80.8926 39.0976 82.7914 38.9777C85.0689 38.8387 87.0156 38.1004 88.6314 36.758C90.2424 35.4155 91.3452 33.6656 91.935 31.5034L86.8669 31.815C86.5073 32.8362 85.9751 33.656 85.2751 34.2745C84.5702 34.893 83.7455 35.2334 82.7962 35.2909C81.8995 35.3436 81.094 35.1183 80.3748 34.6149C79.6556 34.1067 79.1138 33.3636 78.7398 32.3712C78.4809 31.6808 78.3178 30.8993 78.2411 30.0411L92.3234 29.1781C92.4768 27.0159 92.2131 25.0742 91.537 23.3482C90.8562 21.6223 89.7821 20.3087 88.3101 19.3977H88.3053ZM80.3748 22.8976C81.0892 22.3031 81.8995 21.9771 82.7962 21.9243C83.7168 21.8668 84.5175 22.0682 85.1983 22.5284C85.8744 22.9839 86.4018 23.6647 86.771 24.5612C86.9724 25.0502 87.121 25.592 87.2313 26.1865L78.385 26.7282C78.4761 26.244 78.5911 25.7742 78.7446 25.3427C79.1138 24.3071 79.6604 23.4969 80.3796 22.8976H80.3748Z" fill="white"/>
<path d="M95.4399 37.7457L100.431 37.4388V17.6191L95.4399 17.926V37.7457Z" fill="white"/>
<path d="M97.9379 9.89509C97.0652 9.94783 96.3508 10.2547 95.785 10.8156C95.2241 11.3765 94.9412 12.0525 94.9412 12.8436C94.9412 13.5867 95.2241 14.2052 95.785 14.6942C96.3508 15.1832 97.0652 15.4038 97.9379 15.351C98.7338 15.3031 99.4243 14.9962 100.014 14.4353C100.604 13.8744 100.896 13.2223 100.896 12.4792C100.896 11.6882 100.609 11.0457 100.033 10.5567C99.4578 10.0677 98.7578 9.84715 97.9379 9.89509Z" fill="white"/>
<path d="M120.737 28.9525C121.543 27.6341 121.945 26.1958 121.945 24.6328C121.945 23.0699 121.543 21.6747 120.737 20.4426C120.378 19.8912 119.951 19.407 119.471 18.9755L121.754 16.5784L119.102 14.0518L116.139 17.1968C115.065 16.8996 113.905 16.7893 112.653 16.866C110.937 16.9715 109.374 17.427 107.964 18.2276C106.554 19.0331 105.456 20.0974 104.66 21.4254C103.864 22.7534 103.471 24.2013 103.471 25.7643C103.471 27.4039 103.855 28.8278 104.622 30.0312C105.389 31.2394 106.468 32.1551 107.849 32.7736C109.23 33.392 110.831 33.6461 112.653 33.5359C113.627 33.4783 114.437 33.5359 115.094 33.7132C115.746 33.8906 116.24 34.1927 116.57 34.6194C116.906 35.0461 117.069 35.583 117.069 36.2207C117.069 36.7816 116.901 37.3234 116.57 37.8459C116.24 38.3637 115.746 38.7904 115.094 39.126C114.442 39.4616 113.665 39.6534 112.768 39.7109C111.924 39.7637 111.181 39.6486 110.539 39.3657C109.896 39.0829 109.407 38.6802 109.062 38.148C108.717 37.6206 108.544 37.0213 108.544 36.3549L103.625 36.657C103.625 38.1432 104.008 39.4425 104.775 40.5595C105.543 41.6766 106.617 42.5156 108.002 43.0718C109.388 43.6279 110.961 43.8532 112.725 43.743C114.466 43.6375 116.043 43.2443 117.448 42.5683C118.858 41.8924 119.956 41.0198 120.752 39.9459C121.543 38.8719 121.941 37.6686 121.941 36.3405C121.941 35.0844 121.547 33.9769 120.771 33.0133C120.215 32.3277 119.495 31.762 118.618 31.3161C119.467 30.6449 120.171 29.8538 120.732 28.9429L120.737 28.9525ZM110.366 29.4703C109.714 29.0867 109.22 28.5498 108.889 27.8498C108.558 27.1546 108.391 26.3588 108.391 25.4622C108.391 24.5657 108.568 23.7938 108.928 23.0651C109.287 22.3411 109.8 21.7514 110.462 21.3008C111.128 20.8501 111.857 20.6008 112.653 20.5529C113.497 20.5001 114.245 20.6631 114.902 21.0323C115.554 21.4014 116.072 21.9288 116.455 22.6096C116.839 23.2904 117.031 24.0671 117.031 24.9349C117.031 25.8026 116.839 26.6177 116.455 27.3704C116.072 28.1231 115.554 28.732 114.902 29.1922C114.25 29.6525 113.502 29.9114 112.653 29.9641C111.781 30.0168 111.018 29.8538 110.366 29.4703Z" fill="white"/>
<path d="M139.149 15.634C138.137 15.1306 137.068 14.9149 135.941 14.9868C134.608 15.0683 133.424 15.447 132.388 16.1278C131.64 16.6169 131.007 17.2353 130.485 17.9689V8.71582L125.565 9.01786V35.9044L130.485 35.6023V22.6577C130.485 21.8666 130.633 21.1906 130.926 20.6345C131.218 20.0784 131.631 19.6469 132.153 19.3304C132.676 19.0188 133.285 18.8366 133.975 18.7983C135.179 18.7264 136.076 19.0044 136.665 19.6325C137.255 20.2605 137.548 21.1283 137.548 22.231V35.1757L142.467 34.8736V21.929C142.467 20.3948 142.165 19.0859 141.566 18.0072C140.961 16.9285 140.156 16.1422 139.144 15.6388L139.149 15.634Z" fill="white"/>
<path d="M152.948 10.0249L148.034 10.3269V14.7042L144.653 14.9103V18.5971L148.034 18.391V29.0679C148.034 30.1946 148.278 31.1535 148.762 31.9397C149.247 32.7308 149.947 33.3157 150.858 33.6944C151.764 34.0732 152.862 34.2266 154.142 34.1451L156.333 34.0109V29.8638L154.837 29.9549C154.195 29.9932 153.725 29.8494 153.418 29.5234C153.111 29.1974 152.958 28.6988 152.958 28.0371V18.0889L156.338 17.8828V14.196L152.958 14.4021V10.0249H152.948Z" fill="white"/>
<path d="M171.471 0.977902L167.836 1.19844L163.094 17.595L166.959 17.3601L167.899 13.9417L173.71 13.587L174.645 16.8902L178.509 16.6553L173.767 0.838867L171.466 0.977902H171.471ZM168.805 10.6672L170.814 3.36547L172.813 10.4227L168.805 10.6672Z" fill="white"/>
<path d="M179.938 0.460108V16.569L183.664 16.3389V0.22998L179.938 0.460108Z" fill="white"/>
</svg>
